<svg xmlns="http://www.w3.org/2000/svg" version="1.1" xmlns:xlink="http://www.w3.org/1999/xlink" width="256" height="256"><svg width="256" height="256" viewBox="0 0 256 256" fill="none" xmlns="http://www.w3.org/2000/svg">
<g clip-path="url(#clip0_328_11)">
<path d="M0 0H256V256H0V0Z" fill="#E1E9F4"></path>
<path d="M210.81 85.1732C209.605 75.0318 205.023 65.5908 197.801 58.3693C190.58 51.1479 181.139 46.5659 170.998 45.3607C142.545 42.005 113.797 42.005 85.3439 45.3607C75.2025 46.5659 65.7615 51.1479 58.5401 58.3693C51.3186 65.5908 46.7366 75.0318 45.5314 85.1732C42.1757 113.626 42.1757 142.374 45.5314 170.827C46.7366 180.968 51.3186 190.409 58.5401 197.631C65.7615 204.852 75.2025 209.434 85.3439 210.639C113.797 213.995 142.545 213.995 170.998 210.639C181.139 209.434 190.58 204.852 197.801 197.631C205.023 190.409 209.605 180.968 210.81 170.827C214.166 142.374 214.166 113.626 210.81 85.1732ZM56.4514 169.519C53.2663 141.931 53.2663 114.069 56.4514 86.4813C57.327 78.8189 60.7723 71.679 66.2257 66.2256C71.6791 60.7722 78.819 57.3269 86.4814 56.4513C114.069 53.2663 141.931 53.2663 169.519 56.4513C175.237 57.1092 180.695 59.2026 185.387 62.5369L62.537 185.387C59.2027 180.695 57.1093 175.237 56.4514 169.519ZM199.549 169.519C198.673 177.181 195.228 184.321 189.775 189.774C184.321 195.228 177.181 198.673 169.519 199.549C141.931 202.734 114.069 202.734 86.4814 199.549C80.7634 198.891 75.3048 196.797 70.6132 193.463L193.463 70.6132C196.798 75.3047 198.891 80.7633 199.549 86.4813C202.734 114.069 202.734 141.931 199.549 169.519Z" fill="#C0182E"></path>
<path d="M76.8125 99.5625H88.1875V110.938C88.1875 112.446 88.7867 113.893 89.8533 114.959C90.9199 116.026 92.3666 116.625 93.875 116.625C95.3834 116.625 96.8301 116.026 97.8967 114.959C98.9633 113.893 99.5625 112.446 99.5625 110.938V99.5625H110.938C112.446 99.5625 113.893 98.9633 114.959 97.8967C116.026 96.8301 116.625 95.3834 116.625 93.875C116.625 92.3666 116.026 90.9199 114.959 89.8533C113.893 88.7867 112.446 88.1875 110.938 88.1875H99.5625V76.8125C99.5625 75.3041 98.9633 73.8574 97.8967 72.7908C96.8301 71.7242 95.3834 71.125 93.875 71.125C92.3666 71.125 90.9199 71.7242 89.8533 72.7908C88.7867 73.8574 88.1875 75.3041 88.1875 76.8125V88.1875H76.8125C75.3041 88.1875 73.8574 88.7867 72.7908 89.8533C71.7242 90.9199 71.125 92.3666 71.125 93.875C71.125 95.3834 71.7242 96.8301 72.7908 97.8967C73.8574 98.9633 75.3041 99.5625 76.8125 99.5625ZM179.188 156.438H145.062C143.554 156.438 142.107 157.037 141.041 158.103C139.974 159.17 139.375 160.617 139.375 162.125C139.375 163.633 139.974 165.08 141.041 166.147C142.107 167.213 143.554 167.812 145.062 167.812H179.188C180.696 167.812 182.143 167.213 183.209 166.147C184.276 165.08 184.875 163.633 184.875 162.125C184.875 160.617 184.276 159.17 183.209 158.103C182.143 157.037 180.696 156.438 179.188 156.438Z" fill="#C0182E"></path>
</g>
<defs>
<clipPath id="SvgjsClipPath1001">
<rect width="256" height="256" fill="white"></rect>
</clipPath>
</defs>
</svg><style>@media (prefers-color-scheme: light) { :root { filter: none; } }
@media (prefers-color-scheme: dark) { :root { filter: none; } }
</style></svg>