<svg xmlns="http://www.w3.org/2000/svg" viewBox="0 0 32 32"><g data-name="calculator android app aplication phone"><path d="M30.56 8.47a8 8 0 0 0-7-7 64.29 64.29 0 0 0-15.06 0 8 8 0 0 0-7 7 64.29 64.29 0 0 0 0 15.06 8 8 0 0 0 7 7 64.29 64.29 0 0 0 15.06 0 8 8 0 0 0 7-7 64.29 64.29 0 0 0 0-15.06zM3.42 23.3a63.65 63.65 0 0 1 0-14.6A6 6 0 0 1 8.7 3.42a63.65 63.65 0 0 1 14.6 0 6 6 0 0 1 2.79 1.07l-21.6 21.6a6 6 0 0 1-1.07-2.79zm25.16 0a6 6 0 0 1-5.28 5.28 63.65 63.65 0 0 1-14.6 0 6 6 0 0 1-2.79-1.07l21.6-21.6a6 6 0 0 1 1.07 2.79 63.65 63.65 0 0 1 0 14.6z"/><path d="M7 11h2v2a1 1 0 0 0 2 0v-2h2a1 1 0 0 0 0-2h-2V7a1 1 0 0 0-2 0v2H7a1 1 0 0 0 0 2zm18 10h-6a1 1 0 0 0 0 2h6a1 1 0 0 0 0-2z"/></g></svg>